<?xml version="1.0" encoding="utf-8"?>
<!-- Generator: Adobe Illustrator 18.1.1, SVG Export Plug-In . SVG Version: 6.00 Build 0)  -->
<svg version="1.1" id="Layer_1" xmlns="http://www.w3.org/2000/svg" xmlns:xlink="http://www.w3.org/1999/xlink" x="0px" y="0px"
	 viewBox="0 0 423 105" enable-background="new 0 0 423 105" xml:space="preserve">
<g>
	<g>
		<polygon fill="#00A659" points="53.8,50.5 54.4,49.5 66.3,28.8 56.1,11.2 33.4,50.5 56.1,89.8 66.3,72.1 54.4,51.5 		"/>
	</g>
	<g>
		<polygon fill="#00A659" points="41.9,69.1 33.4,83.8 14.2,50.5 33.4,17.2 41.9,31.8 43.6,28.8 33.4,11.2 10.7,50.5 33.4,89.8 
			43.6,72.1 		"/>
	</g>
	<g>
		<polygon fill="#00A659" points="78.3,45.7 78.3,45.7 78.3,39.3 64,64.1 65.8,67.3 		"/>
		<polygon fill="#00A659" points="78.3,37 78.3,37 78.3,30.7 61.5,59.8 63.3,62.9 		"/>
		<polygon fill="#00A659" points="58.3,54.3 78.3,19.7 78.3,19.7 78.3,12 56.1,50.5 		"/>
		<polygon fill="#00A659" points="78.3,28.3 78.3,28.4 78.3,22 59,55.5 60.8,58.6 		"/>
		<polygon fill="#00A659" points="79.3,12 79.3,88.9 101.5,50.5 		"/>
		<polygon fill="#00A659" points="78.3,54.3 78.3,54.3 78.3,48 66.5,68.5 68.3,71.6 		"/>
		<polygon fill="#00A659" points="78.3,63 78.3,63 78.3,56.7 69,72.8 70.8,75.9 		"/>
		<polygon fill="#00A659" points="78.3,80.7 75.9,84.8 78.3,88.9 		"/>
		<polygon fill="#00A659" points="75.2,83.6 78.3,78.3 78.3,78.3 78.3,74 74,81.5 75.2,83.6 		"/>
		<polygon fill="#00A659" points="78.3,71.7 78.3,71.7 78.3,65.3 71.5,77.1 73.3,80.3 		"/>
	</g>
</g>
<g>
	<path fill="#787878" d="M109.7,60.1l10.8-1.1c0.6,3.6,2,6.3,4,8c2,1.7,4.7,2.6,8.1,2.6c3.6,0,6.3-0.8,8.1-2.3
		c1.8-1.5,2.7-3.3,2.7-5.3c0-1.3-0.4-2.4-1.1-3.3c-0.8-0.9-2.1-1.7-4-2.4c-1.3-0.5-4.3-1.3-8.9-2.4c-6-1.5-10.1-3.3-12.5-5.4
		c-3.4-3-5.1-6.7-5.1-11.1c0-2.8,0.8-5.4,2.4-7.9c1.6-2.4,3.9-4.3,6.9-5.6c3-1.3,6.6-1.9,10.8-1.9c6.9,0,12.1,1.5,15.6,4.5
		c3.5,3,5.3,7.1,5.5,12.1l-11.1,0.5c-0.5-2.8-1.5-4.9-3.1-6.1c-1.6-1.2-3.9-1.9-7-1.9c-3.2,0-5.8,0.7-7.6,2c-1.2,0.9-1.8,2-1.8,3.4
		c0,1.3,0.5,2.4,1.7,3.3c1.4,1.2,4.8,2.4,10.2,3.7c5.4,1.3,9.4,2.6,12,4c2.6,1.4,4.6,3.2,6.1,5.6c1.5,2.4,2.2,5.3,2.2,8.8
		c0,3.2-0.9,6.1-2.6,8.9c-1.8,2.8-4.2,4.8-7.4,6.1c-3.2,1.3-7.2,2-12,2c-7,0-12.3-1.6-16-4.8C112.6,70.9,110.4,66.2,109.7,60.1z"/>
	<path fill="#787878" d="M163.7,23H184c4.6,0,8.1,0.4,10.5,1.1c3.2,1,6,2.6,8.3,5.1c2.3,2.4,4.1,5.4,5.3,8.9c1.2,3.5,1.8,7.9,1.8,13
		c0,4.5-0.6,8.4-1.7,11.7c-1.4,4-3.3,7.2-5.9,9.7c-1.9,1.9-4.5,3.3-7.8,4.4c-2.5,0.8-5.7,1.2-9.8,1.2h-20.9V23z M174.8,32.3v36.4
		h8.3c3.1,0,5.3-0.2,6.7-0.5c1.8-0.5,3.3-1.2,4.5-2.3c1.2-1.1,2.2-2.8,2.9-5.3c0.8-2.5,1.1-5.8,1.1-10.1c0-4.3-0.4-7.5-1.1-9.8
		c-0.8-2.3-1.8-4.1-3.2-5.3s-3.1-2.1-5.1-2.6c-1.6-0.4-4.6-0.5-9.1-0.5H174.8z"/>
	<path fill="#00A659" d="M216.4,60.1l10.8-1.1c0.6,3.6,2,6.3,4,8c2,1.7,4.7,2.6,8.1,2.6c3.6,0,6.3-0.8,8.1-2.3
		c1.8-1.5,2.7-3.3,2.7-5.3c0-1.3-0.4-2.4-1.1-3.3c-0.8-0.9-2.1-1.7-4-2.4c-1.3-0.5-4.3-1.3-8.9-2.4c-6-1.5-10.1-3.3-12.5-5.4
		c-3.4-3-5.1-6.7-5.1-11.1c0-2.8,0.8-5.4,2.4-7.9c1.6-2.4,3.9-4.3,6.9-5.6c3-1.3,6.6-1.9,10.8-1.9c6.9,0,12.1,1.5,15.6,4.5
		c3.5,3,5.3,7.1,5.5,12.1l-11.1,0.5c-0.5-2.8-1.5-4.9-3.1-6.1c-1.6-1.2-3.9-1.9-7-1.9c-3.2,0-5.8,0.7-7.6,2c-1.2,0.9-1.8,2-1.8,3.4
		c0,1.3,0.5,2.4,1.7,3.3c1.4,1.2,4.8,2.4,10.2,3.7c5.4,1.3,9.4,2.6,12,4c2.6,1.4,4.6,3.2,6.1,5.6c1.5,2.4,2.2,5.3,2.2,8.8
		c0,3.2-0.9,6.1-2.6,8.9c-1.8,2.8-4.2,4.8-7.4,6.1c-3.2,1.3-7.2,2-12,2c-7,0-12.3-1.6-16-4.8C219.4,70.9,217.2,66.2,216.4,60.1z"/>
	<path fill="#00A659" d="M268.3,50.8c0-5.6,0.8-10.3,2.5-14.1c1.3-2.8,3-5.3,5.1-7.5c2.2-2.2,4.5-3.9,7.1-5
		c3.4-1.5,7.4-2.2,11.9-2.2c8.1,0,14.6,2.5,19.5,7.5c4.9,5,7.3,12,7.3,21c0,8.9-2.4,15.8-7.2,20.8c-4.8,5-11.3,7.5-19.4,7.5
		c-8.2,0-14.7-2.5-19.5-7.5C270.7,66.4,268.3,59.6,268.3,50.8z M279.7,50.4c0,6.2,1.4,11,4.3,14.2c2.9,3.2,6.5,4.8,11,4.8
		c4.4,0,8.1-1.6,10.9-4.8c2.8-3.2,4.3-8,4.3-14.4c0-6.3-1.4-11-4.1-14.1c-2.8-3.1-6.4-4.7-11-4.7c-4.6,0-8.3,1.6-11.1,4.7
		C281.1,39.4,279.7,44.1,279.7,50.4z"/>
	<path fill="#00A659" d="M330.4,78V23h37.7v9.3h-26.6v13h23v9.3h-23V78H330.4z"/>
	<path fill="#00A659" d="M389.6,78V32.3h-16.3V23H417v9.3h-16.3V78H389.6z"/>
</g>
<g>
</g>
<g>
</g>
<g>
</g>
<g>
</g>
<g>
</g>
<g>
</g>
</svg>
