<?xml version="1.0" encoding="utf-8"?>
<!-- Generator: Adobe Illustrator 18.1.1, SVG Export Plug-In . SVG Version: 6.00 Build 0)  -->
<svg version="1.1" id="Layer_1" xmlns="http://www.w3.org/2000/svg" xmlns:xlink="http://www.w3.org/1999/xlink" x="0px" y="0px"
	 viewBox="0 0 608.5 85" enable-background="new 0 0 608.5 85" xml:space="preserve">
<g>
	<path fill="#F26822" d="M26.8,14.8l28,42.3V14.4c0-2.8,0.6-4.9,1.8-6.2c1.2-1.4,2.8-2.1,4.8-2.1c2.1,0,3.7,0.7,4.9,2.1
		c1.2,1.4,1.8,3.5,1.8,6.2v56.5c0,6.3-2.6,9.5-7.8,9.5c-1.3,0-2.5-0.2-3.5-0.6c-1-0.4-2-1-2.9-1.8c-0.9-0.8-1.8-1.8-2.5-2.9
		c-0.8-1.1-1.6-2.2-2.4-3.4L21.7,30v42.1c0,2.7-0.6,4.8-1.9,6.2c-1.3,1.4-2.9,2.1-4.9,2.1c-2.1,0-3.7-0.7-4.9-2.1
		C8.7,76.8,8,74.8,8,72.1V16.6c0-2.4,0.3-4.2,0.8-5.5c0.6-1.5,1.6-2.7,3.1-3.6c1.4-0.9,3-1.4,4.7-1.4c1.3,0,2.4,0.2,3.4,0.6
		c0.9,0.4,1.7,1,2.5,1.7c0.7,0.7,1.4,1.6,2.2,2.8C25.3,12.4,26,13.6,26.8,14.8z"/>
	<path fill="#F26822" d="M133.3,53.2c0,4-0.6,7.7-1.9,11c-1.2,3.4-3,6.3-5.4,8.7c-2.4,2.4-5.2,4.3-8.4,5.6c-3.3,1.3-6.9,1.9-11,1.9
		c-4.1,0-7.7-0.7-10.9-2c-3.2-1.3-6-3.2-8.4-5.6c-2.4-2.4-4.2-5.3-5.4-8.6c-1.2-3.3-1.8-7-1.8-11c0-4.1,0.6-7.8,1.9-11.1
		c1.2-3.4,3-6.2,5.3-8.6c2.3-2.4,5.1-4.2,8.4-5.5c3.3-1.3,6.9-1.9,10.9-1.9c4.1,0,7.7,0.7,11,2c3.3,1.3,6.1,3.2,8.5,5.6
		s4.1,5.3,5.4,8.6C132.6,45.5,133.3,49.2,133.3,53.2z M119.8,53.2c0-5.5-1.2-9.7-3.6-12.7c-2.4-3-5.6-4.6-9.7-4.6
		c-2.6,0-4.9,0.7-6.9,2c-2,1.4-3.5,3.4-4.6,6s-1.6,5.7-1.6,9.3c0,3.5,0.5,6.6,1.6,9.2c1.1,2.6,2.6,4.6,4.6,6c2,1.4,4.3,2.1,7,2.1
		c4.1,0,7.3-1.5,9.7-4.6C118.6,62.8,119.8,58.6,119.8,53.2z"/>
	<path fill="#F26822" d="M157.1,61.1v11.2c0,2.7-0.6,4.7-1.9,6.1c-1.3,1.4-2.9,2-4.9,2c-1.9,0-3.5-0.7-4.8-2.1
		c-1.2-1.4-1.9-3.4-1.9-6.1V35c0-6,2.2-9,6.5-9c2.2,0,3.8,0.7,4.8,2.1c1,1.4,1.5,3.5,1.6,6.2c1.6-2.7,3.2-4.8,4.9-6.2
		c1.7-1.4,3.9-2.1,6.7-2.1c2.8,0,5.5,0.7,8.2,2.1c2.6,1.4,4,3.3,4,5.6c0,1.6-0.6,3-1.7,4c-1.1,1.1-2.3,1.6-3.7,1.6
		c-0.5,0-1.7-0.3-3.6-0.9s-3.5-0.9-5-0.9c-2,0-3.6,0.5-4.8,1.5c-1.2,1-2.2,2.6-2.9,4.6c-0.7,2-1.2,4.4-1.4,7.2
		C157.2,53.7,157.1,57.1,157.1,61.1z"/>
	<path fill="#F26822" d="M232.3,54.2V72c0,2.8-0.6,4.9-1.9,6.3c-1.3,1.4-3,2.1-5,2.1c-2,0-3.7-0.7-4.9-2.1c-1.3-1.4-1.9-3.5-1.9-6.3
		V50.7c0-3.4-0.1-6-0.3-7.8c-0.2-1.9-0.8-3.4-1.9-4.6c-1-1.2-2.6-1.8-4.8-1.8c-4.4,0-7.3,1.5-8.7,4.5c-1.4,3-2.1,7.3-2.1,12.9V72
		c0,2.8-0.6,4.9-1.9,6.3c-1.3,1.4-2.9,2.1-5,2.1c-2,0-3.7-0.7-5-2.1c-1.3-1.4-1.9-3.5-1.9-6.3V33.7c0-2.5,0.6-4.4,1.7-5.7
		c1.2-1.3,2.7-2,4.6-2c1.8,0,3.4,0.6,4.6,1.8c1.2,1.2,1.8,2.9,1.8,5.1v1.3c2.3-2.8,4.8-4.8,7.4-6.1c2.6-1.3,5.6-2,8.8-2
		c3.4,0,6.3,0.7,8.7,2c2.4,1.3,4.4,3.4,6,6.1c2.3-2.7,4.7-4.8,7.3-6.1c2.6-1.3,5.4-2,8.6-2c3.7,0,6.8,0.7,9.5,2.2
		c2.6,1.4,4.6,3.5,5.9,6.2c1.1,2.4,1.7,6.2,1.7,11.4V72c0,2.8-0.6,4.9-1.9,6.3c-1.3,1.4-3,2.1-5,2.1c-2,0-3.7-0.7-5-2.1
		c-1.3-1.4-1.9-3.5-1.9-6.3V49.5c0-2.9-0.1-5.2-0.4-6.9c-0.2-1.7-0.9-3.2-2-4.4c-1.1-1.2-2.7-1.8-4.9-1.8c-1.8,0-3.4,0.5-5,1.6
		c-1.6,1-2.8,2.5-3.7,4.2C232.7,44.5,232.3,48.5,232.3,54.2z"/>
	<path fill="#F26822" d="M310.4,72.9c-3.2,2.5-6.4,4.4-9.4,5.7c-3,1.3-6.4,1.9-10.2,1.9c-3.4,0-6.4-0.7-9-2c-2.6-1.4-4.6-3.2-6-5.5
		c-1.4-2.3-2.1-4.8-2.1-7.5c0-3.7,1.2-6.8,3.5-9.4c2.3-2.6,5.5-4.3,9.6-5.2c0.8-0.2,3-0.6,6.3-1.3c3.4-0.7,6.2-1.3,8.6-1.9
		c2.4-0.6,5-1.3,7.8-2.1c-0.2-3.5-0.9-6.1-2.1-7.8c-1.3-1.6-3.9-2.5-7.8-2.5c-3.4,0-6,0.5-7.7,1.4c-1.7,0.9-3.2,2.4-4.4,4.3
		c-1.2,1.9-2.1,3.1-2.6,3.7c-0.5,0.6-1.6,0.9-3.3,0.9c-1.5,0-2.8-0.5-3.9-1.4c-1.1-1-1.6-2.2-1.6-3.7c0-2.4,0.8-4.6,2.5-6.9
		c1.7-2.2,4.3-4.1,7.8-5.5c3.5-1.4,7.9-2.2,13.2-2.2c5.9,0,10.5,0.7,13.9,2.1c3.4,1.4,5.7,3.6,7.1,6.6c1.4,3,2.1,7,2.1,12
		c0,3.1,0,5.8,0,8c0,2.2,0,4.6-0.1,7.3c0,2.5,0.4,5.1,1.3,7.9c0.8,2.7,1.3,4.5,1.3,5.3c0,1.4-0.6,2.6-1.9,3.7
		c-1.3,1.1-2.8,1.7-4.4,1.7c-1.4,0-2.7-0.6-4.1-1.9C313.3,77.2,311.9,75.3,310.4,72.9z M309.5,53.5c-2,0.7-4.8,1.5-8.6,2.3
		c-3.7,0.8-6.3,1.4-7.8,1.8c-1.4,0.4-2.8,1.1-4.1,2.2c-1.3,1.1-2,2.6-2,4.6c0,2,0.8,3.7,2.3,5.2c1.5,1.4,3.5,2.1,6,2.1
		c2.6,0,5.1-0.6,7.3-1.7c2.2-1.2,3.9-2.7,4.9-4.5c1.2-2,1.8-5.4,1.8-10V53.5z"/>
	<path fill="#F26822" d="M336.2,72.3v-58c0-2.7,0.6-4.7,1.8-6.1c1.2-1.4,2.8-2.1,4.8-2.1c2,0,3.7,0.7,4.9,2c1.2,1.4,1.9,3.4,1.9,6.1
		v58c0,2.7-0.6,4.7-1.9,6.1c-1.3,1.4-2.9,2-4.9,2c-2,0-3.6-0.7-4.8-2.1C336.8,76.9,336.2,74.9,336.2,72.3z"/>
</g>
<g>
	<path fill="#262E3A" d="M437.9,27.3h3.2v-4c0-4.2,0.5-7.5,1.6-10c1.1-2.5,2.9-4.3,5.4-5.4s6-1.7,10.4-1.7c7.8,0,11.7,1.9,11.7,5.7
		c0,1.2-0.4,2.3-1.2,3.2c-0.8,0.9-1.8,1.3-2.9,1.3c-0.5,0-1.4-0.1-2.7-0.3c-1.3-0.2-2.4-0.3-3.2-0.3c-2.4,0-4,0.7-4.7,2.1
		c-0.7,1.4-1,3.5-1,6.1v3.2h3.3c5.1,0,7.6,1.5,7.6,4.6c0,2.2-0.7,3.6-2,4.2c-1.4,0.6-3.2,0.9-5.6,0.9h-3.3v35.4
		c0,2.6-0.6,4.7-1.9,6.1c-1.3,1.4-2.9,2.1-4.9,2.1c-1.9,0-3.5-0.7-4.7-2.1c-1.3-1.4-1.9-3.4-1.9-6.1V37h-3.7c-2,0-3.5-0.4-4.6-1.3
		c-1.1-0.9-1.6-2.1-1.6-3.5C431.2,28.9,433.4,27.3,437.9,27.3z"/>
	<path fill="#262E3A" d="M475.1,27.3h3.2v-4c0-4.2,0.5-7.5,1.6-10c1.1-2.5,2.9-4.3,5.4-5.4s6-1.7,10.4-1.7c7.8,0,11.7,1.9,11.7,5.7
		c0,1.2-0.4,2.3-1.2,3.2c-0.8,0.9-1.8,1.3-2.9,1.3c-0.5,0-1.4-0.1-2.7-0.3c-1.3-0.2-2.4-0.3-3.2-0.3c-2.4,0-4,0.7-4.7,2.1
		c-0.7,1.4-1,3.5-1,6.1v3.2h3.3c5.1,0,7.6,1.5,7.6,4.6c0,2.2-0.7,3.6-2,4.2c-1.4,0.6-3.2,0.9-5.6,0.9h-3.3v35.4
		c0,2.6-0.6,4.7-1.9,6.1c-1.3,1.4-2.9,2.1-4.9,2.1c-1.9,0-3.5-0.7-4.7-2.1c-1.3-1.4-1.9-3.4-1.9-6.1V37h-3.7c-2,0-3.5-0.4-4.6-1.3
		c-1.1-0.9-1.6-2.1-1.6-3.5C468.3,28.9,470.6,27.3,475.1,27.3z"/>
	<path fill="#262E3A" d="M545.6,56.6h-26.2c0,3,0.6,5.7,1.8,8c1.2,2.3,2.8,4.1,4.8,5.2c2,1.2,4.2,1.8,6.5,1.8c1.6,0,3.1-0.2,4.4-0.6
		c1.3-0.4,2.6-1,3.8-1.8c1.2-0.8,2.4-1.7,3.4-2.6c1-0.9,2.4-2.2,4.1-3.7c0.7-0.6,1.7-0.9,2.9-0.9c1.4,0,2.5,0.4,3.3,1.1
		c0.8,0.8,1.3,1.8,1.3,3.2c0,1.2-0.5,2.6-1.4,4.2c-0.9,1.6-2.4,3.2-4.3,4.7c-1.9,1.5-4.3,2.7-7.2,3.7c-2.9,1-6.2,1.5-10,1.5
		c-8.6,0-15.3-2.5-20-7.4c-4.8-4.9-7.2-11.6-7.2-19.9c0-4,0.6-7.6,1.8-11c1.2-3.4,2.9-6.3,5.1-8.7c2.3-2.4,5-4.3,8.3-5.6
		c3.3-1.3,7-1.9,11-1.9c5.2,0,9.7,1.1,13.5,3.3c3.7,2.2,6.5,5.1,8.4,8.6c1.9,3.5,2.8,7.1,2.8,10.7c0,3.4-1,5.5-2.9,6.5
		C551.8,56.1,549.1,56.6,545.6,56.6z M519.4,49h24.3c-0.3-4.6-1.6-8-3.7-10.3c-2.1-2.3-5-3.4-8.5-3.4c-3.3,0-6.1,1.2-8.2,3.5
		C521.2,41.1,519.9,44.5,519.4,49z"/>
	<path fill="#262E3A" d="M581.2,61.2v11.2c0,2.7-0.6,4.7-1.9,6.1s-2.9,2-4.9,2c-1.9,0-3.5-0.7-4.8-2.1c-1.2-1.4-1.9-3.4-1.9-6.1
		V35.2c0-6,2.2-9,6.5-9c2.2,0,3.8,0.7,4.8,2.1c1,1.4,1.5,3.5,1.6,6.2c1.6-2.7,3.2-4.8,4.9-6.2c1.7-1.4,3.9-2.1,6.7-2.1
		c2.8,0,5.5,0.7,8.2,2.1c2.6,1.4,4,3.3,4,5.6c0,1.6-0.6,3-1.7,4c-1.1,1.1-2.3,1.6-3.7,1.6c-0.5,0-1.7-0.3-3.6-0.9
		c-1.9-0.6-3.5-0.9-5-0.9c-2,0-3.6,0.5-4.8,1.5s-2.2,2.6-2.9,4.6c-0.7,2-1.2,4.4-1.4,7.2C581.3,53.8,581.2,57.2,581.2,61.2z"/>
</g>
<g>
	<g>
		<path fill="#F26822" d="M357.4,37.6L357.4,37.6L357.4,37.6c0,0.1,0,0.2,0,0.3v0l0,0l0,0c0,0,0,0,0,0c0,0,0,0.1,0,0.1l0,0.1l0,0
			l0,0l0,0l0,0l0,0l0,0l0,0l0,0l0,0l0,0c0,0.1,0,0.2,0,0.4c0,0.1,0,0.2,0,0.3c0,0,0,0.1,0,0.1v0l0,0l0,0c0,0.1,0,0.3,0,0.4
			c0,0.1,0,0.2,0,0.3v0l0,0.1c0,0,0,0.1,0,0.1c0,0,0,0.1,0,0.1c0,0,0,0,0,0.1c0,0,0,0.1,0,0.1c0,0,0,0.1,0,0.1c0,0,0,0,0,0.1
			c0,0.1,0,0.3,0,0.4l0,0l0,0v0c0,0.1,0,0.1,0,0.2c0,0.1,0,0.1,0,0.2l0,0l0,0v0v0c0,0,0,0,0,0c0,0,0,0,0,0v0v0l0,0l0,0
			c0,0.1,0,0.2,0,0.2c0,0,0,0.1,0,0.1c0,0.1,0,0.3,0,0.4c0,0,0,0,0,0.1v0c0,0.1,0,0.2,0,0.3l0,0.1l0,0v0v0.1c0,0,0,0.1,0,0.1
			c0,0,0,0.1,0,0.1c0,0,0,0.1,0,0.1c0,0,0,0.1,0,0.1v0.1l0,0.1c0.1,6.9,2.9,13.4,7.8,18.2c4.9,4.8,11.4,7.5,18.3,7.5
			c1.1,0,2.2-0.1,3.3-0.2c0.5-0.1,1-0.1,1.5-0.2c0,0,0,0,0,0c-3.6-2.2-6.7-5.1-9.1-8.5c-0.9-1.3-1.7-2.6-2.3-3.9
			c-0.2-0.3-0.3-0.6-0.4-0.9c0,0,0-0.1,0-0.1c-1.7-3.8-2.6-7.9-2.6-12.2c0-6.2,1.9-12.1,5.4-17.1c0.8-1.2,1.7-2.3,2.6-3.3
			c3.1-3.3,6.9-5.9,11.1-7.6c1.3-0.5,2.6-0.9,4-1.2c2.2-0.5,4.5-0.8,6.9-0.8c5.5,0,10.7,1.4,15.3,4.2c0,0,0,0,0,0c0,0,0,0,0,0
			c0,0-0.1-0.1-0.1-0.1c-0.1-0.1-0.1-0.1-0.2-0.2c0,0,0,0-0.1-0.1l0,0l0,0l0,0l0,0c0,0-0.1-0.1-0.2-0.1c-0.1-0.1-0.1-0.1-0.2-0.2
			l0,0l0,0l0,0c0,0,0,0,0,0c-0.1-0.1-0.1-0.1-0.2-0.2l0,0l-0.1-0.1c0,0,0,0,0,0c-0.1-0.1-0.2-0.2-0.3-0.2c-0.1-0.1-0.2-0.2-0.3-0.3
			c0,0-0.1-0.1-0.1-0.1c-0.1-0.1-0.1-0.1-0.2-0.2l-0.1-0.1l-0.1-0.1l0,0l-0.1,0l0,0c-0.1-0.1-0.2-0.1-0.2-0.2l0,0l0,0l0,0l0,0
			c-0.1-0.1-0.1-0.1-0.2-0.1l0,0l0,0l0,0l0,0c-0.2-0.2-0.4-0.3-0.6-0.5l0,0l0,0c-0.1,0-0.1-0.1-0.2-0.1l-0.1-0.1l0,0c0,0,0,0,0,0
			c0,0,0,0,0,0l0,0l0,0l0,0l0,0l-0.1-0.1l0,0l-0.2-0.1c0,0,0,0,0,0c0,0-0.1,0-0.1-0.1l-0.1,0l0,0l0,0l0,0l0,0
			c-0.1,0-0.1-0.1-0.2-0.1c0,0,0,0,0,0l0,0l0,0c-0.2-0.1-0.3-0.2-0.5-0.3l0,0l0,0l0,0c-0.1,0-0.1-0.1-0.2-0.1c0,0,0,0,0,0l0,0l0,0
			c-0.1-0.1-0.2-0.1-0.3-0.2c0,0,0,0,0,0l0,0l0,0l0,0c0,0,0,0-0.1,0c-0.1,0-0.1-0.1-0.2-0.1l0,0l0,0l0,0c-0.1-0.1-0.2-0.1-0.3-0.2
			l0,0l0,0l0,0c-0.1-0.1-0.2-0.1-0.3-0.2l-0.2-0.1l0,0c0,0-0.1,0-0.1-0.1c0,0-0.1,0-0.1-0.1l0,0l0,0l0,0l0,0c0,0,0,0-0.1,0
			c-0.1,0-0.2-0.1-0.2-0.1l-0.1,0c0,0-0.1,0-0.1,0c-0.1,0-0.2-0.1-0.2-0.1c0,0,0,0,0,0c-0.5-0.3-1-0.6-1.6-0.8c0,0,0,0,0,0l0,0l0,0
			l0,0c-0.1-0.1-0.2-0.1-0.4-0.2l-0.3-0.1l0,0c0,0,0,0,0,0c0,0,0,0,0,0l0,0l0,0l0,0c-0.4-0.2-0.7-0.3-1-0.5l0,0l0,0l0,0l0,0
			c-0.1,0-0.2-0.1-0.2-0.1l0,0l0,0l0,0l0,0L407,9.6c0,0-0.1,0-0.2-0.1c0,0,0,0-0.1,0c-0.3-0.1-0.6-0.3-0.9-0.4l-0.2-0.1l0,0L405.6,9
			c-0.4-0.2-0.9-0.3-1.4-0.5l0,0l0,0c0,0,0,0,0,0c-0.1,0-0.2-0.1-0.3-0.1c-0.1,0-0.2-0.1-0.3-0.1c-0.1,0-0.1,0-0.2,0
			c-0.2-0.1-0.4-0.1-0.6-0.2l0,0l0,0l0,0l0,0c0,0,0,0-0.1,0c0,0-0.1,0-0.1,0l0,0l0,0c-0.4-0.1-0.8-0.2-1.2-0.3
			c-0.2-0.1-0.5-0.1-0.7-0.2c-0.4-0.1-0.8-0.2-1.2-0.2c-0.1,0-0.3-0.1-0.4-0.1l0,0h0h0c-0.1,0-0.3,0-0.4-0.1c-0.1,0-0.1,0-0.2,0
			c-0.1,0-0.2,0-0.3,0c-0.4-0.1-0.8-0.1-1.3-0.2c-0.8-0.1-1.6-0.1-2.4-0.2c-0.5,0-0.9,0-1.4,0c-0.8,0-1.5,0-2.3,0.1
			c-0.1,0-0.2,0-0.2,0c-0.8,0.1-1.7,0.1-2.5,0.3c-0.2,0-0.3,0-0.4,0.1c0,0,0,0,0,0c0,0,0,0,0,0l0,0L357.4,37.6L357.4,37.6z"/>
		<path fill="#262E3A" d="M429,48.6L429,48.6L429,48.6c0-0.1,0-0.2,0-0.2l0,0l0,0l0,0c0-0.1,0-0.1,0-0.2l0,0l0,0c0,0,0,0,0-0.1
			l0-0.2l0-0.2c0-0.2,0-0.3,0.1-0.4l0,0c0-0.1,0-0.3,0-0.4c0-0.1,0-0.2,0-0.3v0l0-0.1c0-0.1,0-0.1,0-0.2l0,0l0,0c0-0.1,0-0.2,0-0.3
			v0l0,0c0-0.1,0-0.3,0-0.4v0c0-0.1,0-0.3,0-0.4l0,0v-0.1l0-0.1c0-0.1,0-0.2,0-0.3c0-0.2,0-0.3,0-0.5l0,0v-0.1c0-0.1,0-0.2,0-0.3
			v-0.1l0,0c0-0.1,0-0.2,0-0.3c0-0.1,0-0.2,0-0.3v0l0-0.1c-0.1-6.9-2.9-13.4-7.8-18.2c-4.9-4.8-11.4-7.5-18.3-7.5
			c-1.6,0-3.2,0.1-4.7,0.4c3.6,2.2,6.7,5.1,9.1,8.5c3.5,5,5.4,11,5.4,17.1c0,6.2-1.9,12.1-5.4,17.1c-3.4,4.9-8.2,8.7-13.8,10.8
			c-3.4,1.3-7.1,2-10.8,2c-5.5,0-10.7-1.4-15.3-4.2l0,0l0,0l0,0c0,0,0,0,0.1,0.1l0.1,0.1c0.1,0.1,0.1,0.1,0.2,0.2l0,0l0,0
			c0.1,0.1,0.2,0.2,0.3,0.3l0,0l0,0c0.1,0.1,0.1,0.1,0.2,0.2l0,0l0,0c0.1,0.1,0.3,0.2,0.4,0.4l0,0l0,0c0.1,0.1,0.2,0.2,0.3,0.2l0,0
			l0.1,0.1l0,0l0.3,0.2l0.1,0l0,0c0.1,0.1,0.1,0.1,0.2,0.2l0,0l0,0c0.1,0.1,0.1,0.1,0.2,0.2l0,0l0,0c0.1,0,0.1,0.1,0.2,0.1l0,0l0,0
			c0.2,0.2,0.4,0.3,0.6,0.5c0,0,0.1,0.1,0.1,0.1c0.1,0,0.1,0.1,0.2,0.1c0,0,0.1,0,0.1,0.1l0,0c0.1,0.1,0.2,0.1,0.2,0.2l0.1,0.1
			c0,0,0.1,0.1,0.1,0.1l0,0l0,0c0.1,0,0.1,0.1,0.2,0.1l0.1,0c0.1,0.1,0.3,0.2,0.5,0.3l0,0l0,0c0.1,0,0.1,0.1,0.2,0.1l0.1,0l0.2,0.1
			l0.2,0.1c0.1,0.1,0.2,0.1,0.3,0.2c0.1,0.1,0.2,0.1,0.3,0.2h0.2l0.4,0.4c0.1,0,0.1,0.1,0.2,0.1c0.1,0.1,0.3,0.1,0.4,0.2l0,0l0,0
			c0.1,0.1,0.2,0.1,0.3,0.2c0.5,0.3,1.1,0.6,1.6,0.9c0.1,0.1,0.2,0.1,0.4,0.2c0,0,0,0,0.1,0c0.1,0.1,0.2,0.1,0.3,0.2
			c0.3,0.2,0.7,0.3,1,0.5l0,0l0,0c0.1,0,0.2,0.1,0.3,0.1c0,0,0.1,0,0.1,0c0.1,0,0.2,0.1,0.3,0.1c0.3,0.1,0.6,0.2,0.9,0.3l0,0l0,0
			c0.1,0,0.2,0.1,0.3,0.1l0,0l0,0c0.5,0.2,0.9,0.3,1.4,0.5l0,0l0,0c0.1,0,0.2,0.1,0.3,0.1l0,0l0,0c0.1,0,0.3,0.1,0.4,0.1l0.1,0
			c0.2,0,0.3,0.1,0.5,0.1c0.1,0,0.2,0,0.2,0.1l0,0c1,0.3,2,0.5,3,0.7l0,0l0,0c0.1,0,0.3,0,0.4,0.1h0l0,0c0.2,0,0.3,0,0.4,0.1l0,0
			l0,0c0.1,0,0.3,0,0.4,0.1l0,0c1.7,0.2,3.4,0.4,5.1,0.4c1.7,0,3.4-0.1,5.1-0.4l0,0c0.1,0,0.3,0,0.4-0.1l0,0l0,0L429,48.6
			C429,48.6,429,48.6,429,48.6z"/>
	</g>
	<g>
		<path fill="#F26822" d="M389.7,34.6l8.4,12.8V34.5c0-0.8,0.2-1.5,0.5-1.9c0.4-0.4,0.8-0.6,1.5-0.6c0.6,0,1.1,0.2,1.5,0.6
			c0.4,0.4,0.5,1,0.5,1.9v17.1c0,1.9-0.8,2.9-2.4,2.9c-0.4,0-0.8-0.1-1.1-0.2s-0.6-0.3-0.9-0.5c-0.3-0.2-0.5-0.5-0.8-0.9
			c-0.2-0.3-0.5-0.7-0.7-1l-8.2-12.6v12.7c0,0.8-0.2,1.5-0.6,1.9s-0.9,0.6-1.5,0.6c-0.6,0-1.1-0.2-1.5-0.6c-0.4-0.4-0.6-1.1-0.6-1.9
			V35.2c0-0.7,0.1-1.3,0.2-1.7c0.2-0.4,0.5-0.8,0.9-1.1c0.4-0.3,0.9-0.4,1.4-0.4c0.4,0,0.7,0.1,1,0.2s0.5,0.3,0.7,0.5
			c0.2,0.2,0.4,0.5,0.7,0.8S389.5,34.3,389.7,34.6z"/>
	</g>
</g>
<g>
</g>
<g>
</g>
<g>
</g>
<g>
</g>
<g>
</g>
<g>
</g>
</svg>
